<svg xmlns="http://www.w3.org/2000/svg" viewBox="0 0 128 128">
  <path fill="#FFD845" d="M49.33 62h29.159C86.606 62 93 55.132 93 46.981V19.183c0-7.912-6.632-13.856-14.555-15.176-5.014-.835-10.195-1.215-15.187-1.191-4.99.023-9.612.448-13.805 1.191C37.145 6.659 35 12.412 35 19.183V50h29v12H29.532c-8.015 0-15.025 4.811-17.201 13.916-2.573 10.799-2.691 17.519 0 28.793C14.687 113.965 19.733 120 27.947 120h9.086v-16.495c0-9.237 7.986-17.505 17.2-17.505zM47 19.073c0-2.81-2.307-5.073-5.117-5.073-2.81 0-5.117 2.263-5.117 5.073v9.044c0 2.81 2.307 5.073 5.117 5.073 2.81 0 5.117-2.263 5.117-5.073v-9.044z"/>
  <path fill="#3776AB" d="M85.344 76.968c-2.467-10.559-7.249-18.24-15.147-18.24H50v12.489c0 9.237-7.986 17.505-17.2 17.505H15.345c-7.614 0-14.345 6.613-14.345 14.227v26.858c0 7.614 6.632 12.093 14.345 14.227 9.234 2.559 18.141 3.018 29.656 0 7.642-2.007 14.345-6.037 14.345-14.227V118h-29V106h43.452c8.778 0 12.03-6.13 15.147-15.291 3.19-9.421 3.051-18.466 0-27.741zM80 108.927c0 2.81-2.307 5.073-5.117 5.073-2.81 0-5.117-2.263-5.117-5.073v-9.044c0-2.81 2.307-5.073 5.117-5.073 2.81 0 5.117 2.263 5.117 5.073v9.044z"/>
</svg>